# xmcd
# 
# Track frame offsets:
#   150
#   16027
#   28775
#   48957
#   65454
#   83328
#   100203
#   117330
#   131648
#   147652
#   162029
#   180480
#   196084
#   211347
# 
# Disc length: 3033 seconds
# 
# Revision: 0
# Processed by: cddbd v1.5.1PL2 Copyright (c) Steve Scherf et al.
# Submitted via: Synapstar 1.0 
# 
DISCID=b30bd70e
DTITLE=Various Artist - sd star disc
DYEAR=1900
DGENRE=Country
TTITLE0=faith hill - there you'll be 
TTITLE1=toby keith - i'm just talkin' about tonight
TTITLE2=brooks and dunn - only in america
TTITLE3=travis tritt - love of a woman
TTITLE4=jessica andrews - helplessly hopelessly
TTITLE5=phil vassar - six pack summer
TTITLE6=chely wright - never love you enough
TTITLE7=billy gilman - she's my girl
TTITLE8=trick pony - on a night like this
TTITLE9=andy griggs - how cool is that
TTITLE10=warren brothers - where does it hurt
TTITLE11=dwight yoakam - i want you to want me
TTITLE12=clark family experience - standing still 
TTITLE13=tim mcgraw - telluride
EXTD=MediaType: Karaoke CD+G Producer: StarDisc
EXTT0=
EXTT1=
EXTT2=
EXTT3=
EXTT4=
EXTT5=
EXTT6=
EXTT7=
EXTT8=
EXTT9=
EXTT10=
EXTT11=
EXTT12=
EXTT13=
PLAYORDER=
